<svg version="1.2" xmlns="http://www.w3.org/2000/svg" viewBox="0 0 2257 389" width="2257" height="389">
  <style>.a{fill:#f7931a}.b{fill:#fff}.c{fill:#ff9300}</style>

  <defs>
    <filter id="shadow" y="-40%" height="180%" x="-40%" width="180%">
      <!-- <feDropShadow dx="1" dy="1" stdDeviation="30" /> -->
      <feGaussianBlur in="SourceGraphic" stdDeviation="30" />
    </filter>
  </defs>

  <path filter="url(#shadow)" fill="#000" d="m355 232c-21 76-103 122-185 103-82-19-131-96-110-172 21-76 102-123 184-104 82 19 131 97 111 173z"/>
  <path filter="url(#shadow)" fill-rule="evenodd" fill="#000" d="m505 142q13 0 23 5 2.3 1.1 4.5 2.5 2.2 1.5 4.2 3.1 2.1 1.6 3.9 3.5 1.8 1.8 3.4 3.9 1.6 2.1 3 4.4 1.3 2.3 2.5 4.6 1.1 2.4 2 4.9 0.9 2.5 1.5 5.1 0.8 2.8 1.3 5.7 0.6 2.8 1 5.7 0.4 2.9 0.5 5.8 0.2 2.9 0.2 5.8c0 6-0.6 12-1.7 17.8-1.1 5.9-2.8 11.7-5 17.2-2.2 5.6-5 10.9-8.2 15.9-3.3 5.1-7 9.8-11.1 14.1q-3.1 3.2-6.5 6-3.4 2.9-7 5.4-3.7 2.6-7.5 4.7-3.9 2.1-8 3.9-4.3 1.8-8.7 3.2-4.4 1.3-8.9 2.2-4.6 0.9-9.2 1.3-4.6 0.4-9.2 0.3h-8q-1.9 0-3.8-0.1-1.8-0.1-3.7-0.2-1.9-0.1-3.8-0.3-1.8-0.2-3.7-0.4-2.1-0.3-4.3-0.6-2.1-0.3-4.2-0.7-2.2-0.4-4.3-0.8-2.1-0.4-4.2-0.9-2.2-0.5-4.4-1.2-2.1-0.6-4.3-1.4-2.1-0.7-4.2-1.6-2.1-0.8-4.1-1.8l48-201 43-7-17 72q1.3-0.6 2.7-1.2 1.3-0.5 2.7-1 1.4-0.5 2.8-1 1.4-0.4 2.8-0.8 1.5-0.4 2.9-0.8 1.5-0.3 3-0.6 1.5-0.2 3.1-0.4 1.5-0.1 3-0.2zm-36 119q2.4 0 4.7-0.4 2.3-0.3 4.6-0.9 2.3-0.7 4.5-1.6 2.2-0.9 4.2-2.1 2.2-1.2 4.2-2.6 2.1-1.5 4-3.1 1.9-1.7 3.6-3.5 1.7-1.8 3.2-3.8 1.6-2 3-4.2 1.5-2.1 2.7-4.4 1.3-2.3 2.4-4.6 1-2.4 1.9-4.8 0.8-2.4 1.4-4.9 0.6-2.5 0.9-5 0.4-2.5 0.6-5 0.1-2.6 0.1-5.1 0-13-4-21-4-8-17-7-1.3 0-2.5 0.1-1.3 0-2.5 0.1-1.3 0.2-2.5 0.4-1.3 0.1-2.5 0.4-1.5 0.4-3 1-1.5 0.5-2.9 1.3-1.4 0.8-2.7 1.7-1.2 0.9-2.4 2l-18 75 3 1q0.4 0 0.7 0 0.4 0.1 0.8 0.1 0.4 0 0.8-0.1 0.3 0 0.7 0l3 1zm106-27q0.1-4.4 0.6-8.7 0.5-4.3 1.4-8.6 0.8-4.3 2.1-8.5 1.3-4.2 2.9-8.2 1.4-4.1 3.2-8.1 1.8-3.9 3.9-7.7 2.2-3.8 4.6-7.3 2.5-3.6 5.3-6.9 2.9-3.3 6.2-6.3 3.2-3 6.7-5.6 3.6-2.7 7.3-4.9 3.8-2.3 7.8-4.2 4.1-1.8 8.4-3.2 4.3-1.4 8.7-2.3 4.4-0.8 8.9-1.2 4.5-0.4 9-0.3 2.3-0.1 4.5-0.1 2.3 0.1 4.6 0.4 2.2 0.2 4.5 0.7 2.2 0.4 4.4 1 2 0.6 4 1.4 2 0.9 3.9 1.9 1.9 1 3.7 2.2 1.7 1.1 3.4 2.5 1.5 1.4 2.8 2.9 1.3 1.5 2.4 3.1 1.2 1.6 2.1 3.4 1 1.8 1.7 3.6 0.9 2 1.7 4.1 0.7 2 1.2 4.2 0.5 2.1 0.8 4.3 0.3 2.2 0.3 4.4 0 16-7 27-1.8 2.7-3.9 5.1-2.1 2.4-4.5 4.6-2.4 2.1-5.1 4-2.6 1.8-5.5 3.3-13 7-29 10-4.6 0.8-9.2 1.4-4.6 0.6-9.2 0.9-4.7 0.4-9.3 0.6-4.7 0.1-9.3 0.1 2 12 8 16 6 4 21 5 2.3 0.1 4.5 0 2.3 0 4.5-0.1 2.3-0.1 4.5-0.4 2.3-0.2 4.5-0.5 2.2-0.4 4.3-0.9 2.2-0.5 4.3-1.2 2.2-0.6 4.2-1.3 2.1-0.8 4.2-1.6l3 32q-2.4 1-4.9 1.8-2.5 0.9-5 1.6-2.5 0.8-5 1.4-2.5 0.7-5.1 1.2-3.2 0.6-6.5 1-3.2 0.4-6.4 0.7-3.3 0.2-6.6 0.3-3.2 0.1-6.5 0-17 0-29-4c-3.5-1.4-6.9-3.3-10-5.5-3.1-2.2-5.9-4.7-8.4-7.6-2.5-2.8-4.7-6-6.5-9.3-1.7-3.4-3.1-6.9-4.1-10.6q-0.9-2.8-1.6-5.6-0.7-2.9-1.2-5.8-0.5-2.8-0.8-5.8-0.3-2.9-0.4-5.8zm81-60q-3.5 0-6.9 0.6-3.4 0.6-6.6 1.9-3.2 1.3-6.1 3.2-2.9 1.9-5.4 4.3-11 10-14 27l28-3q11-2 16-6 6-3 8-7 0.5-0.9 0.9-1.9 0.3-1 0.6-2 0.2-1 0.4-2 0.1-1.1 0.1-2.1 0-13-15-13zm168 7l-11-3-16-1q-1 0.1-2 0.1-1 0.1-2 0.3-1 0.1-2 0.2-1 0.2-2 0.4-1 0.1-2 0.2-1 0.1-2 0.2-1 0.1-2 0.3-1 0.1-2 0.3l-27 112h-41l33-138 27-7q4.1-1 8.2-1.7 4.1-0.7 8.2-1.2 4.1-0.5 8.3-0.8 4.1-0.3 8.3-0.3 2 0.1 4 0.3 2 0.1 4 0.4 2 0.2 4 0.6 2 0.3 4 0.7 1.8 0.3 3.6 0.7 1.8 0.4 3.5 0.9 1.8 0.5 3.5 1.1 1.7 0.6 3.4 1.3zm159-36l-20 83q-0.9 3.9-1.6 7.9-0.6 4-0.8 8-0.3 4-0.2 8.1 0.1 4 0.6 8 0.3 3.6 0.8 7.1 0.6 3.6 1.3 7.1 0.8 3.5 1.7 7 1 3.4 2.2 6.8l-36 5q-0.8-1.6-1.6-3.2-0.8-1.6-1.6-3.2-0.7-1.6-1.4-3.3-0.7-1.6-1.4-3.3-2 1.5-4 2.9-2 1.4-4.2 2.6-2.1 1.3-4.3 2.4-2.2 1.1-4.5 2.1-2.6 1.1-5.3 1.9-2.7 0.7-5.5 1.3-2.8 0.5-5.6 0.7-2.8 0.2-5.6 0.1-16 0-26-6-2.4-1.4-4.6-3.1-2.2-1.8-4.1-3.8-1.9-2-3.5-4.3-1.6-2.3-2.8-4.8-1.3-2.5-2.4-5.2-1-2.7-1.8-5.5-0.8-2.7-1.2-5.6-0.5-2.8-0.6-5.7-0.1-3.3 0.1-6.6 0.1-3.2 0.5-6.5 0.4-3.3 1-6.5 0.6-3.2 1.4-6.4l19-79h41l-21 91q-0.2 1.4-0.3 2.7-0.1 1.4-0.1 2.8 0 1.4 0.1 2.8 0.1 1.3 0.3 2.7 0.1 1.3 0.4 2.5 0.3 1.2 0.8 2.3 0.6 1.2 1.2 2.2 0.7 1.1 1.6 2 4 4 11 4 1.6 0 3.1-0.3 1.5-0.2 3.1-0.6 1.5-0.3 2.9-0.9 1.5-0.5 2.9-1.2 1.5-0.8 3-1.6 1.5-0.9 2.8-1.9 1.4-1 2.7-2.2 1.3-1.1 2.5-2.3l2-14 3-14 18-76z"/>
  <path filter="url(#shadow)" fill-rule="evenodd" fill="#000" d="m1087 142q14 0 23 5 2.3 1.1 4.5 2.5 2.2 1.4 4.3 3.1 2 1.6 3.8 3.5 1.8 1.8 3.4 3.9 1.7 2.1 3.2 4.3 1.5 2.3 2.8 4.7 1.2 2.4 2.2 4.9 1.1 2.5 1.8 5.1 0.8 2.8 1.3 5.7 0.6 2.8 1 5.7 0.4 2.9 0.5 5.8 0.2 2.9 0.2 5.8c0 6-0.6 12-1.7 17.8-1.1 5.9-2.8 11.7-5 17.2-2.2 5.6-5 10.9-8.2 15.9-3.3 5.1-7 9.8-11.1 14.1q-3.1 3.2-6.5 6-3.4 2.9-7 5.4-3.7 2.6-7.5 4.7-3.9 2.1-8 3.9-4.3 1.8-8.7 3.2-4.4 1.3-8.9 2.2-4.6 0.9-9.2 1.3-4.6 0.4-9.2 0.3h-9q-1.8 0-3.5-0.1-1.8-0.1-3.5-0.2-1.8-0.1-3.5-0.3-1.8-0.2-3.5-0.4-2.1-0.3-4.3-0.6-2.1-0.3-4.2-0.7-2.2-0.4-4.3-0.8-2.1-0.4-4.2-0.9-2.2-0.5-4.4-1.2-2.1-0.6-4.3-1.4-2.1-0.7-4.2-1.6-2.1-0.8-4.1-1.8l48-201 43-7-17 72q1.3-0.6 2.7-1.2 1.3-0.5 2.7-1 1.4-0.5 2.8-1 1.4-0.4 2.8-0.8 1.3-0.4 2.7-0.7 1.4-0.4 2.7-0.6 1.4-0.3 2.8-0.4 1.4-0.2 2.8-0.3zm-35 119q2.4 0 4.7-0.4 2.3-0.3 4.6-0.9 2.3-0.7 4.5-1.6 2.2-0.9 4.2-2.1 2.2-1.2 4.2-2.6 2.1-1.5 4-3.1 1.9-1.7 3.6-3.5 1.7-1.8 3.2-3.8 1.5-2.1 2.8-4.2 1.3-2.2 2.4-4.4 1.2-2.3 2.1-4.6 0.9-2.4 1.7-4.8 0.9-2.4 1.6-4.9 0.7-2.4 1.2-4.9 0.5-2.5 0.8-5.1 0.3-2.5 0.4-5.1 0-13-4-21-4-8-17-7-1.3 0-2.5 0.1-1.3 0-2.5 0.1-1.3 0.2-2.5 0.4-1.3 0.1-2.5 0.4-1.5 0.4-3 1-1.5 0.5-2.9 1.3-1.4 0.8-2.7 1.7-1.2 0.9-2.4 2l-18 75 3 1q0.2 0 0.5 0 0.2 0 0.5 0 0.3 0 0.5 0 0.3 0 0.5 0l4 1zm139 30h-41l34-146h41zm19-163q-2 0-4-0.3-2-0.3-3.9-1-1.9-0.6-3.7-1.6-1.8-0.9-3.4-2.1-7-5-7-16-0.1-1.4 0-2.8 0.1-1.4 0.4-2.8 0.3-1.4 0.7-2.7 0.4-1.4 0.9-2.7 0.6-1.3 1.4-2.5 0.8-1.2 1.7-2.3 0.8-1.2 1.8-2.2 1-1.1 2.1-2 1-0.9 2-1.8 1.1-0.9 2.2-1.6 1.2-0.8 2.4-1.4 1.2-0.7 2.4-1.2 1.3-0.5 2.7-0.9 1.3-0.4 2.7-0.7 1.4-0.2 2.8-0.3 1.4-0.1 2.8-0.1 2 0 4 0.3 2 0.3 3.9 1 1.9 0.6 3.7 1.6 1.8 0.9 3.4 2.1 7 5 7 16 0.1 1.4 0 2.8-0.1 1.4-0.4 2.8-0.3 1.4-0.7 2.7-0.4 1.4-0.9 2.7-0.6 1.3-1.4 2.5-0.8 1.2-1.7 2.3-0.8 1.2-1.8 2.2-1 1.1-2.1 2-1 0.9-2 1.8-1.1 0.9-2.2 1.6-1.2 0.8-2.4 1.4-1.2 0.7-2.4 1.2-1.3 0.5-2.7 0.9-1.3 0.4-2.7 0.7-1.4 0.2-2.8 0.3-1.4 0.1-2.8 0.1zm57-19l43-6-10 42h45l-8 34h-45l-13 51q-0.4 1.5-0.7 3-0.3 1.5-0.6 3-0.2 1.5-0.4 3-0.2 1.5-0.3 3 0 1.2 0.1 2.3 0.1 1.2 0.3 2.3 0.3 1.2 0.7 2.3 0.4 1.1 0.9 2.1 0.5 1 1.1 1.9 0.6 0.8 1.4 1.6 0.8 0.8 1.6 1.4 0.9 0.6 1.9 1.1 4 3 12 3 1.6-0.1 3.3-0.3 1.6-0.1 3.3-0.4 1.6-0.2 3.2-0.6 1.6-0.3 3.2-0.7 1.6-0.3 3.3-0.6 1.6-0.3 3.3-0.7 1.6-0.3 3.2-0.8 1.6-0.4 3.2-0.9l3 31q-2.2 0.9-4.4 1.7-2.3 0.8-4.5 1.6-2.3 0.7-4.5 1.4-2.3 0.7-4.6 1.3-2.8 0.6-5.7 1-2.9 0.4-5.7 0.6-2.9 0.3-5.8 0.4-2.9 0.1-5.8 0-19 0-30-6-11-6-15-15-1.2-2.7-2-5.5-0.9-2.9-1.4-5.8-0.5-2.9-0.6-5.8-0.2-3 0-5.9 0.2-3.3 0.6-6.6 0.3-3.2 0.8-6.5 0.5-3.2 1.2-6.5 0.6-3.2 1.4-6.4zm80 124q-0.1-4.6 0.3-9.2 0.3-4.5 1.1-9.1 0.7-4.5 1.9-8.9 1.1-4.5 2.7-8.8 1.4-4 3.2-7.8 1.7-3.9 3.9-7.5 2.1-3.7 4.6-7.1 2.5-3.4 5.3-6.6 3-3.1 6.2-5.8 3.3-2.8 6.8-5.2 3.5-2.4 7.3-4.4 3.7-2 7.7-3.6 16-7 36-7 2.8-0.1 5.5 0 2.8 0.1 5.6 0.4 2.7 0.2 5.5 0.6 2.7 0.4 5.4 1 2.3 0.5 4.6 1.1 2.3 0.7 4.6 1.4 2.2 0.8 4.4 1.6 2.2 0.9 4.4 1.9l-14 32-12-4q-1.7-0.5-3.4-0.9-1.8-0.3-3.5-0.6-1.8-0.2-3.6-0.4-1.7-0.1-3.5-0.1-21 0-33 14-12 14-12 38 0 14 6 23 6 9 23 9 1.9 0 3.8-0.2 1.9-0.1 3.8-0.4 1.8-0.2 3.7-0.6 1.9-0.4 3.7-0.8 1.7-0.3 3.3-0.8 1.7-0.4 3.3-0.9 1.6-0.5 3.2-1.1 1.6-0.6 3.2-1.2l3 33q-2.1 0.8-4.2 1.4-2.1 0.7-4.2 1.4-2.1 0.6-4.3 1.1-2.1 0.6-4.3 1.1-2.7 0.7-5.4 1.2-2.8 0.6-5.5 1-2.8 0.3-5.5 0.5-2.8 0.3-5.6 0.3-17 0-29-5-2.9-1.2-5.6-2.6-2.7-1.5-5.2-3.3-2.5-1.7-4.8-3.8-2.3-2-4.4-4.3-1.9-2.1-3.6-4.5-1.6-2.4-3-4.9-1.4-2.5-2.5-5.2-1.1-2.6-1.9-5.4-0.8-2.8-1.4-5.7-0.6-2.8-0.9-5.7-0.4-2.9-0.6-5.8-0.1-2.9-0.1-5.8zm183 61q-15 0-26-4-2.4-1-4.7-2.3-2.3-1.2-4.5-2.7-2.1-1.6-4.1-3.3-1.9-1.7-3.7-3.7-1.8-2.1-3.5-4.3-1.6-2.2-3-4.6-1.4-2.4-2.5-5-1.1-2.5-2-5.1-1-2.9-1.7-5.9-0.8-2.9-1.3-5.9-0.5-3.1-0.7-6.1-0.3-3-0.3-6.1 0.1-4.3 0.5-8.7 0.4-4.3 1.1-8.5 0.8-4.3 1.9-8.5 1.1-4.2 2.5-8.3 1.3-3.9 3-7.7 1.7-3.9 3.7-7.5 2-3.6 4.4-7.1 2.3-3.5 4.9-6.7 2.5-3.3 5.4-6.4 2.9-3.1 6-5.8 3.2-2.8 6.6-5.3 3.4-2.4 7-4.5 15-8 35-8 14 0 25 4 2.6 1 5 2.2 2.4 1.2 4.7 2.8 2.3 1.5 4.4 3.2 2 1.8 3.9 3.8 1.8 2.1 3.5 4.3 1.6 2.2 3 4.6 1.4 2.4 2.5 5 1.1 2.5 2 5.1 0.8 2.9 1.5 5.9 0.6 3 0.9 6 0.4 3 0.6 6 0.1 3.1 0 6.1 0.1 4.3-0.2 8.6-0.3 4.3-1 8.6-0.6 4.3-1.5 8.5-1 4.2-2.3 8.3-1.2 3.9-2.8 7.7-1.6 3.8-3.4 7.4-1.9 3.7-4.1 7.2-2.2 3.4-4.7 6.7-2.6 3.4-5.6 6.5-3 3.1-6.2 5.9-3.3 2.8-6.9 5.2-3.5 2.4-7.3 4.4-15 8-35 8zm20-118q-2.2 0.1-4.3 0.5-2.2 0.4-4.2 1.1-2 0.8-3.9 1.9-1.9 1.1-3.6 2.5-1.7 1.3-3.2 2.8-1.5 1.5-2.9 3.2-1.4 1.6-2.6 3.4-1.3 1.7-2.3 3.6-1.2 2-2.2 4.1-1 2-1.9 4.2-0.9 2.1-1.6 4.3-0.7 2.2-1.3 4.4-0.6 2.2-1.2 4.4-0.5 2.3-0.8 4.5-0.4 2.3-0.7 4.5-0.2 2.3-0.3 4.6 0 15 5 22 5 7 16 8 2.2-0.1 4.3-0.5 2.2-0.4 4.2-1.1 2-0.8 3.9-1.9 1.9-1.1 3.6-2.5 1.7-1.3 3.2-2.8 1.5-1.5 2.9-3.2 1.4-1.6 2.6-3.4 1.3-1.7 2.3-3.6 1.2-2 2.2-4.1 1-2 1.9-4.2 0.9-2.1 1.6-4.3 0.7-2.2 1.3-4.4 0.6-2.2 1.2-4.4 0.5-2.3 0.8-4.5 0.4-2.3 0.7-4.5 0.2-2.3 0.3-4.6 0-14-5-22-5-8-16-8zm113 115h-41l35-146h41zm20-163q-2 0-4-0.3-2-0.3-3.9-1-1.9-0.6-3.7-1.6-1.8-0.9-3.4-2.1-7-5-7-16-0.1-1.4 0-2.8 0.1-1.4 0.4-2.8 0.3-1.4 0.7-2.7 0.4-1.4 0.9-2.7 0.5-1.3 1.2-2.5 0.6-1.1 1.4-2.3 0.7-1.1 1.6-2.2 0.8-1 1.8-2 1-0.9 2-1.8 1.1-0.9 2.2-1.6 1.2-0.8 2.4-1.4 1.2-0.7 2.4-1.2 1.3-0.5 2.7-0.9 1.3-0.4 2.7-0.7 1.4-0.2 2.8-0.3 1.4-0.1 2.8-0.1 2.1-0.1 4.3 0.2 2.1 0.3 4.1 0.9 2.1 0.7 4 1.6 1.9 1 3.6 2.3 7 5 7 16-0.1 1.4-0.3 2.9-0.2 1.4-0.6 2.8-0.4 1.4-0.9 2.7-0.5 1.3-1.2 2.6-0.5 1.3-1.2 2.5-0.6 1.1-1.4 2.3-0.7 1.1-1.6 2.2-0.8 1-1.8 2-1 0.9-2 1.8-1.1 0.9-2.2 1.6-1.2 0.8-2.4 1.4-1.2 0.7-2.4 1.2-1.3 0.5-2.7 0.9-1.3 0.4-2.7 0.7-1.4 0.2-2.8 0.3-1.4 0.1-2.8 0.1zm51 24l10-3 13-3 16-3q2.4-0.2 4.7-0.4 2.4-0.2 4.8-0.3 2.4-0.2 4.7-0.2 2.4-0.1 4.8-0.1 33 0 45 19 12 19 4 51l-19 79h-41l19-77 2-14q0.3-1.5 0.4-3 0.1-1.5 0.1-3 0-1.5-0.1-3-0.1-1.5-0.4-3-0.3-1.2-0.7-2.3-0.5-1.1-1.1-2.1-0.6-1.1-1.4-2-0.9-0.9-1.8-1.6-4-3-12-3-2.1-0.1-4.3-0.1-2.1 0-4.2 0.2-2.2 0.1-4.3 0.3-2.1 0.3-4.2 0.6l-26 113h-41z"/>
  <path filter="url(#shadow)" fill="#000" d="m1882 243q9 0 16 6 7 6 6 17 0 1.4-0.1 2.8-0.1 1.4-0.3 2.8-0.3 1.4-0.7 2.7-0.4 1.4-0.9 2.7-1.1 2.5-2.6 4.8-1.5 2.2-3.4 4.2-2 1.9-4.2 3.4-2.3 1.5-4.8 2.6-1.2 0.5-2.4 0.9-1.2 0.3-2.5 0.6-1.3 0.2-2.5 0.4-1.3 0.1-2.6 0.1-10 0-16-5-6-5-7-17 0-1.6 0.2-3.1 0.3-1.6 0.6-3.1 0.4-1.5 1-2.9 0.5-1.5 1.2-2.9 1.1-2.5 2.6-4.8 1.5-2.2 3.4-4.2 2-1.9 4.2-3.4 2.3-1.5 4.8-2.6 1.2-0.5 2.4-0.9 1.2-0.3 2.5-0.6 1.3-0.2 2.5-0.4 1.3-0.1 2.6-0.1zm47-10q-0.1-4.6 0.3-9.2 0.3-4.5 1.1-9.1 0.7-4.5 1.9-8.9 1.1-4.5 2.7-8.8 1.5-4 3.4-7.9 1.9-3.8 4.2-7.5 2.2-3.6 4.8-7.1 2.7-3.4 5.6-6.5 2.8-3 6-5.8 3.1-2.7 6.5-5.1 3.4-2.4 7.1-4.4 3.6-2 7.4-3.7 16-7 36-7 2.8-0.1 5.5 0 2.8 0.1 5.6 0.4 2.7 0.2 5.5 0.6 2.7 0.4 5.4 1 2.3 0.5 4.6 1.1 2.3 0.7 4.6 1.4 2.2 0.8 4.4 1.6 2.2 0.9 4.4 1.9l-14 32-11-4q-1.8-0.5-3.7-0.9-1.8-0.4-3.7-0.7-1.9-0.2-3.8-0.3-1.9-0.1-3.8-0.1-21 0-32 14-11 14-12 38 0 14 6 23 6 9 22 9 2 0 4-0.2 2.1-0.1 4.1-0.3 2-0.3 3.9-0.7 2-0.3 4-0.8 1.7-0.3 3.3-0.8 1.7-0.4 3.3-0.9 1.6-0.5 3.2-1.1 1.6-0.6 3.2-1.2l3 33q-2.1 0.8-4.2 1.4-2.1 0.7-4.2 1.4-2.1 0.6-4.3 1.1-2.1 0.6-4.3 1.1-2.8 0.7-5.7 1.3-2.8 0.5-5.7 0.9-2.9 0.4-5.8 0.6-2.9 0.2-5.8 0.2-17 0-29-5-2.7-1.2-5.3-2.7-2.6-1.5-5-3.3-2.4-1.7-4.5-3.7-2.2-2.1-4.2-4.3-1.9-2.1-3.6-4.5-1.6-2.4-3-4.9-1.4-2.5-2.5-5.2-1.1-2.6-1.9-5.4-0.9-2.8-1.6-5.6-0.7-2.9-1.2-5.8-0.5-2.8-0.8-5.8-0.3-2.9-0.4-5.8zm266-60l-17 15-22 21-24 24-23 24h67l-8 34h-117l5-24 19-22 21-23 23-23 20-20h-59l9-34h112z"/>

  <path class="a" d="m355 232c-21 76-103 122-185 103-82-19-131-96-110-172 21-76 102-123 184-104 82 19 131 97 111 173z"/>
  <path fill-rule="evenodd" class="b" d="m253 200c15 7 22 18 15 38-9 24-30 26-59 21l-7 26-16-4 6-26-13-3-7 26-16-4 7-26-12-3-22-5 8-18 12 3c5 1 7-2 8-4l11-41 2 1q-0.2-0.1-0.5-0.3-0.2-0.1-0.5-0.2-0.2-0.2-0.5-0.3-0.2-0.1-0.5-0.2l8-29c0-3-1-7-8-9l-12-3 4-17 23 6 11 2 7-25 16 3-6 26 13 3 7-25 16 3-6 26c21 7 36 17 33 36-2 14-10 21-21 23zm-59-1l-9 34c11 3 46 13 51-6 5-20-31-25-42-28zm12-47l-8 31c9 2 38 11 43-6 5-19-25-23-35-25z"/>
  <path fill-rule="evenodd" class="b" d="m505 142q13 0 23 5 2.3 1.1 4.5 2.5 2.2 1.5 4.2 3.1 2.1 1.6 3.9 3.5 1.8 1.8 3.4 3.9 1.6 2.1 3 4.4 1.3 2.3 2.5 4.6 1.1 2.4 2 4.9 0.9 2.5 1.5 5.1 0.8 2.8 1.3 5.7 0.6 2.8 1 5.7 0.4 2.9 0.5 5.8 0.2 2.9 0.2 5.8c0 6-0.6 12-1.7 17.8-1.1 5.9-2.8 11.7-5 17.2-2.2 5.6-5 10.9-8.2 15.9-3.3 5.1-7 9.8-11.1 14.1q-3.1 3.2-6.5 6-3.4 2.9-7 5.4-3.7 2.6-7.5 4.7-3.9 2.1-8 3.9-4.3 1.8-8.7 3.2-4.4 1.3-8.9 2.2-4.6 0.9-9.2 1.3-4.6 0.4-9.2 0.3h-8q-1.9 0-3.8-0.1-1.8-0.1-3.7-0.2-1.9-0.1-3.8-0.3-1.8-0.2-3.7-0.4-2.1-0.3-4.3-0.6-2.1-0.3-4.2-0.7-2.2-0.4-4.3-0.8-2.1-0.4-4.2-0.9-2.2-0.5-4.4-1.2-2.1-0.6-4.3-1.4-2.1-0.7-4.2-1.6-2.1-0.8-4.1-1.8l48-201 43-7-17 72q1.3-0.6 2.7-1.2 1.3-0.5 2.7-1 1.4-0.5 2.8-1 1.4-0.4 2.8-0.8 1.5-0.4 2.9-0.8 1.5-0.3 3-0.6 1.5-0.2 3.1-0.4 1.5-0.1 3-0.2zm-36 119q2.4 0 4.7-0.4 2.3-0.3 4.6-0.9 2.3-0.7 4.5-1.6 2.2-0.9 4.2-2.1 2.2-1.2 4.2-2.6 2.1-1.5 4-3.1 1.9-1.7 3.6-3.5 1.7-1.8 3.2-3.8 1.6-2 3-4.2 1.5-2.1 2.7-4.4 1.3-2.3 2.4-4.6 1-2.4 1.9-4.8 0.8-2.4 1.4-4.9 0.6-2.5 0.9-5 0.4-2.5 0.6-5 0.1-2.6 0.1-5.1 0-13-4-21-4-8-17-7-1.3 0-2.5 0.1-1.3 0-2.5 0.1-1.3 0.2-2.5 0.4-1.3 0.1-2.5 0.4-1.5 0.4-3 1-1.5 0.5-2.9 1.3-1.4 0.8-2.7 1.7-1.2 0.9-2.4 2l-18 75 3 1q0.4 0 0.7 0 0.4 0.1 0.8 0.1 0.4 0 0.8-0.1 0.3 0 0.7 0l3 1zm106-27q0.1-4.4 0.6-8.7 0.5-4.3 1.4-8.6 0.8-4.3 2.1-8.5 1.3-4.2 2.9-8.2 1.4-4.1 3.2-8.1 1.8-3.9 3.9-7.7 2.2-3.8 4.6-7.3 2.5-3.6 5.3-6.9 2.9-3.3 6.2-6.3 3.2-3 6.7-5.6 3.6-2.7 7.3-4.9 3.8-2.3 7.8-4.2 4.1-1.8 8.4-3.2 4.3-1.4 8.7-2.3 4.4-0.8 8.9-1.2 4.5-0.4 9-0.3 2.3-0.1 4.5-0.1 2.3 0.1 4.6 0.4 2.2 0.2 4.5 0.7 2.2 0.4 4.4 1 2 0.6 4 1.4 2 0.9 3.9 1.9 1.9 1 3.7 2.2 1.7 1.1 3.4 2.5 1.5 1.4 2.8 2.9 1.3 1.5 2.4 3.1 1.2 1.6 2.1 3.4 1 1.8 1.7 3.6 0.9 2 1.7 4.1 0.7 2 1.2 4.2 0.5 2.1 0.8 4.3 0.3 2.2 0.3 4.4 0 16-7 27-1.8 2.7-3.9 5.1-2.1 2.4-4.5 4.6-2.4 2.1-5.1 4-2.6 1.8-5.5 3.3-13 7-29 10-4.6 0.8-9.2 1.4-4.6 0.6-9.2 0.9-4.7 0.4-9.3 0.6-4.7 0.1-9.3 0.1 2 12 8 16 6 4 21 5 2.3 0.1 4.5 0 2.3 0 4.5-0.1 2.3-0.1 4.5-0.4 2.3-0.2 4.5-0.5 2.2-0.4 4.3-0.9 2.2-0.5 4.3-1.2 2.2-0.6 4.2-1.3 2.1-0.8 4.2-1.6l3 32q-2.4 1-4.9 1.8-2.5 0.9-5 1.6-2.5 0.8-5 1.4-2.5 0.7-5.1 1.2-3.2 0.6-6.5 1-3.2 0.4-6.4 0.7-3.3 0.2-6.6 0.3-3.2 0.1-6.5 0-17 0-29-4c-3.5-1.4-6.9-3.3-10-5.5-3.1-2.2-5.9-4.7-8.4-7.6-2.5-2.8-4.7-6-6.5-9.3-1.7-3.4-3.1-6.9-4.1-10.6q-0.9-2.8-1.6-5.6-0.7-2.9-1.2-5.8-0.5-2.8-0.8-5.8-0.3-2.9-0.4-5.8zm81-60q-3.5 0-6.9 0.6-3.4 0.6-6.6 1.9-3.2 1.3-6.1 3.2-2.9 1.9-5.4 4.3-11 10-14 27l28-3q11-2 16-6 6-3 8-7 0.5-0.9 0.9-1.9 0.3-1 0.6-2 0.2-1 0.4-2 0.1-1.1 0.1-2.1 0-13-15-13zm168 7l-11-3-16-1q-1 0.1-2 0.1-1 0.1-2 0.3-1 0.1-2 0.2-1 0.2-2 0.4-1 0.1-2 0.2-1 0.1-2 0.2-1 0.1-2 0.3-1 0.1-2 0.3l-27 112h-41l33-138 27-7q4.1-1 8.2-1.7 4.1-0.7 8.2-1.2 4.1-0.5 8.3-0.8 4.1-0.3 8.3-0.3 2 0.1 4 0.3 2 0.1 4 0.4 2 0.2 4 0.6 2 0.3 4 0.7 1.8 0.3 3.6 0.7 1.8 0.4 3.5 0.9 1.8 0.5 3.5 1.1 1.7 0.6 3.4 1.3zm159-36l-20 83q-0.9 3.9-1.6 7.9-0.6 4-0.8 8-0.3 4-0.2 8.1 0.1 4 0.6 8 0.3 3.6 0.8 7.1 0.6 3.6 1.3 7.1 0.8 3.5 1.7 7 1 3.4 2.2 6.8l-36 5q-0.8-1.6-1.6-3.2-0.8-1.6-1.6-3.2-0.7-1.6-1.4-3.3-0.7-1.6-1.4-3.3-2 1.5-4 2.9-2 1.4-4.2 2.6-2.1 1.3-4.3 2.4-2.2 1.1-4.5 2.1-2.6 1.1-5.3 1.9-2.7 0.7-5.5 1.3-2.8 0.5-5.6 0.7-2.8 0.2-5.6 0.1-16 0-26-6-2.4-1.4-4.6-3.1-2.2-1.8-4.1-3.8-1.9-2-3.5-4.3-1.6-2.3-2.8-4.8-1.3-2.5-2.4-5.2-1-2.7-1.8-5.5-0.8-2.7-1.2-5.6-0.5-2.8-0.6-5.7-0.1-3.3 0.1-6.6 0.1-3.2 0.5-6.5 0.4-3.3 1-6.5 0.6-3.2 1.4-6.4l19-79h41l-21 91q-0.2 1.4-0.3 2.7-0.1 1.4-0.1 2.8 0 1.4 0.1 2.8 0.1 1.3 0.3 2.7 0.1 1.3 0.4 2.5 0.3 1.2 0.8 2.3 0.6 1.2 1.2 2.2 0.7 1.1 1.6 2 4 4 11 4 1.6 0 3.1-0.3 1.5-0.2 3.1-0.6 1.5-0.3 2.9-0.9 1.5-0.5 2.9-1.2 1.5-0.8 3-1.6 1.5-0.9 2.8-1.9 1.4-1 2.7-2.2 1.3-1.1 2.5-2.3l2-14 3-14 18-76z"/>
  <path fill-rule="evenodd" class="c" d="m1087 142q14 0 23 5 2.3 1.1 4.5 2.5 2.2 1.4 4.3 3.1 2 1.6 3.8 3.5 1.8 1.8 3.4 3.9 1.7 2.1 3.2 4.3 1.5 2.3 2.8 4.7 1.2 2.4 2.2 4.9 1.1 2.5 1.8 5.1 0.8 2.8 1.3 5.7 0.6 2.8 1 5.7 0.4 2.9 0.5 5.8 0.2 2.9 0.2 5.8c0 6-0.6 12-1.7 17.8-1.1 5.9-2.8 11.7-5 17.2-2.2 5.6-5 10.9-8.2 15.9-3.3 5.1-7 9.8-11.1 14.1q-3.1 3.2-6.5 6-3.4 2.9-7 5.4-3.7 2.6-7.5 4.7-3.9 2.1-8 3.9-4.3 1.8-8.7 3.2-4.4 1.3-8.9 2.2-4.6 0.9-9.2 1.3-4.6 0.4-9.2 0.3h-9q-1.8 0-3.5-0.1-1.8-0.1-3.5-0.2-1.8-0.1-3.5-0.3-1.8-0.2-3.5-0.4-2.1-0.3-4.3-0.6-2.1-0.3-4.2-0.7-2.2-0.4-4.3-0.8-2.1-0.4-4.2-0.9-2.2-0.5-4.4-1.2-2.1-0.6-4.3-1.4-2.1-0.7-4.2-1.6-2.1-0.8-4.1-1.8l48-201 43-7-17 72q1.3-0.6 2.7-1.2 1.3-0.5 2.7-1 1.4-0.5 2.8-1 1.4-0.4 2.8-0.8 1.3-0.4 2.7-0.7 1.4-0.4 2.7-0.6 1.4-0.3 2.8-0.4 1.4-0.2 2.8-0.3zm-35 119q2.4 0 4.7-0.4 2.3-0.3 4.6-0.9 2.3-0.7 4.5-1.6 2.2-0.9 4.2-2.1 2.2-1.2 4.2-2.6 2.1-1.5 4-3.1 1.9-1.7 3.6-3.5 1.7-1.8 3.2-3.8 1.5-2.1 2.8-4.2 1.3-2.2 2.4-4.4 1.2-2.3 2.1-4.6 0.9-2.4 1.7-4.8 0.9-2.4 1.6-4.9 0.7-2.4 1.2-4.9 0.5-2.5 0.8-5.1 0.3-2.5 0.4-5.1 0-13-4-21-4-8-17-7-1.3 0-2.5 0.1-1.3 0-2.5 0.1-1.3 0.2-2.5 0.4-1.3 0.1-2.5 0.4-1.5 0.4-3 1-1.5 0.5-2.9 1.3-1.4 0.8-2.7 1.7-1.2 0.9-2.4 2l-18 75 3 1q0.2 0 0.5 0 0.2 0 0.5 0 0.3 0 0.5 0 0.3 0 0.5 0l4 1zm139 30h-41l34-146h41zm19-163q-2 0-4-0.3-2-0.3-3.9-1-1.9-0.6-3.7-1.6-1.8-0.9-3.4-2.1-7-5-7-16-0.1-1.4 0-2.8 0.1-1.4 0.4-2.8 0.3-1.4 0.7-2.7 0.4-1.4 0.9-2.7 0.6-1.3 1.4-2.5 0.8-1.2 1.7-2.3 0.8-1.2 1.8-2.2 1-1.1 2.1-2 1-0.9 2-1.8 1.1-0.9 2.2-1.6 1.2-0.8 2.4-1.4 1.2-0.7 2.4-1.2 1.3-0.5 2.7-0.9 1.3-0.4 2.7-0.7 1.4-0.2 2.8-0.3 1.4-0.1 2.8-0.1 2 0 4 0.3 2 0.3 3.9 1 1.9 0.6 3.7 1.6 1.8 0.9 3.4 2.1 7 5 7 16 0.1 1.4 0 2.8-0.1 1.4-0.4 2.8-0.3 1.4-0.7 2.7-0.4 1.4-0.9 2.7-0.6 1.3-1.4 2.5-0.8 1.2-1.7 2.3-0.8 1.2-1.8 2.2-1 1.1-2.1 2-1 0.9-2 1.8-1.1 0.9-2.2 1.6-1.2 0.8-2.4 1.4-1.2 0.7-2.4 1.2-1.3 0.5-2.7 0.9-1.3 0.4-2.7 0.7-1.4 0.2-2.8 0.3-1.4 0.1-2.8 0.1zm57-19l43-6-10 42h45l-8 34h-45l-13 51q-0.4 1.5-0.7 3-0.3 1.5-0.6 3-0.2 1.5-0.4 3-0.2 1.5-0.3 3 0 1.2 0.1 2.3 0.1 1.2 0.3 2.3 0.3 1.2 0.7 2.3 0.4 1.1 0.9 2.1 0.5 1 1.1 1.9 0.6 0.8 1.4 1.6 0.8 0.8 1.6 1.4 0.9 0.6 1.9 1.1 4 3 12 3 1.6-0.1 3.3-0.3 1.6-0.1 3.3-0.4 1.6-0.2 3.2-0.6 1.6-0.3 3.2-0.7 1.6-0.3 3.3-0.6 1.6-0.3 3.3-0.7 1.6-0.3 3.2-0.8 1.6-0.4 3.2-0.9l3 31q-2.2 0.9-4.4 1.7-2.3 0.8-4.5 1.6-2.3 0.7-4.5 1.4-2.3 0.7-4.6 1.3-2.8 0.6-5.7 1-2.9 0.4-5.7 0.6-2.9 0.3-5.8 0.4-2.9 0.1-5.8 0-19 0-30-6-11-6-15-15-1.2-2.7-2-5.5-0.9-2.9-1.4-5.8-0.5-2.9-0.6-5.8-0.2-3 0-5.9 0.2-3.3 0.6-6.6 0.3-3.2 0.8-6.5 0.5-3.2 1.2-6.5 0.6-3.2 1.4-6.4zm80 124q-0.1-4.6 0.3-9.2 0.3-4.5 1.1-9.1 0.7-4.5 1.9-8.9 1.1-4.5 2.7-8.8 1.4-4 3.2-7.8 1.7-3.9 3.9-7.5 2.1-3.7 4.6-7.1 2.5-3.4 5.3-6.6 3-3.1 6.2-5.8 3.3-2.8 6.8-5.2 3.5-2.4 7.3-4.4 3.7-2 7.7-3.6 16-7 36-7 2.8-0.1 5.5 0 2.8 0.1 5.6 0.4 2.7 0.2 5.5 0.6 2.7 0.4 5.4 1 2.3 0.5 4.6 1.1 2.3 0.7 4.6 1.4 2.2 0.8 4.4 1.6 2.2 0.9 4.4 1.9l-14 32-12-4q-1.7-0.5-3.4-0.9-1.8-0.3-3.5-0.6-1.8-0.2-3.6-0.4-1.7-0.1-3.5-0.1-21 0-33 14-12 14-12 38 0 14 6 23 6 9 23 9 1.9 0 3.8-0.2 1.9-0.1 3.8-0.4 1.8-0.2 3.7-0.6 1.9-0.4 3.7-0.8 1.7-0.3 3.3-0.8 1.7-0.4 3.3-0.9 1.6-0.5 3.2-1.1 1.6-0.6 3.2-1.2l3 33q-2.1 0.8-4.2 1.4-2.1 0.7-4.2 1.4-2.1 0.6-4.3 1.1-2.1 0.6-4.3 1.1-2.7 0.7-5.4 1.2-2.8 0.6-5.5 1-2.8 0.3-5.5 0.5-2.8 0.3-5.6 0.3-17 0-29-5-2.9-1.2-5.6-2.6-2.7-1.5-5.2-3.3-2.5-1.7-4.8-3.8-2.3-2-4.4-4.3-1.9-2.1-3.6-4.5-1.6-2.4-3-4.9-1.4-2.5-2.5-5.2-1.1-2.6-1.9-5.4-0.8-2.8-1.4-5.7-0.6-2.8-0.9-5.7-0.4-2.9-0.6-5.8-0.1-2.9-0.1-5.8zm183 61q-15 0-26-4-2.4-1-4.7-2.3-2.3-1.2-4.5-2.7-2.1-1.6-4.1-3.3-1.9-1.7-3.7-3.7-1.8-2.1-3.5-4.3-1.6-2.2-3-4.6-1.4-2.4-2.5-5-1.1-2.5-2-5.1-1-2.9-1.7-5.9-0.8-2.9-1.3-5.9-0.5-3.1-0.7-6.1-0.3-3-0.3-6.1 0.1-4.3 0.5-8.7 0.4-4.3 1.1-8.5 0.8-4.3 1.9-8.5 1.1-4.2 2.5-8.3 1.3-3.9 3-7.7 1.7-3.9 3.7-7.5 2-3.6 4.4-7.1 2.3-3.5 4.9-6.7 2.5-3.3 5.4-6.4 2.9-3.1 6-5.8 3.2-2.8 6.6-5.3 3.4-2.4 7-4.5 15-8 35-8 14 0 25 4 2.6 1 5 2.2 2.4 1.2 4.7 2.8 2.3 1.5 4.4 3.2 2 1.8 3.9 3.8 1.8 2.1 3.5 4.3 1.6 2.2 3 4.6 1.4 2.4 2.5 5 1.1 2.5 2 5.1 0.8 2.9 1.5 5.9 0.6 3 0.9 6 0.4 3 0.6 6 0.1 3.1 0 6.1 0.1 4.3-0.2 8.6-0.3 4.3-1 8.6-0.6 4.3-1.5 8.5-1 4.2-2.3 8.3-1.2 3.9-2.8 7.7-1.6 3.8-3.4 7.4-1.9 3.7-4.1 7.2-2.2 3.4-4.7 6.7-2.6 3.4-5.6 6.5-3 3.1-6.2 5.9-3.3 2.8-6.9 5.2-3.5 2.4-7.3 4.4-15 8-35 8zm20-118q-2.2 0.1-4.3 0.5-2.2 0.4-4.2 1.1-2 0.8-3.9 1.9-1.9 1.1-3.6 2.5-1.7 1.3-3.2 2.8-1.5 1.5-2.9 3.2-1.4 1.6-2.6 3.4-1.3 1.7-2.3 3.6-1.2 2-2.2 4.1-1 2-1.9 4.2-0.9 2.1-1.6 4.3-0.7 2.2-1.3 4.4-0.6 2.2-1.2 4.4-0.5 2.3-0.8 4.5-0.4 2.3-0.7 4.5-0.2 2.3-0.3 4.6 0 15 5 22 5 7 16 8 2.2-0.1 4.3-0.5 2.2-0.4 4.2-1.1 2-0.8 3.9-1.9 1.9-1.1 3.6-2.5 1.7-1.3 3.2-2.8 1.5-1.5 2.9-3.2 1.4-1.6 2.6-3.4 1.3-1.7 2.3-3.6 1.2-2 2.2-4.1 1-2 1.9-4.2 0.9-2.1 1.6-4.3 0.7-2.2 1.3-4.4 0.6-2.2 1.2-4.4 0.5-2.3 0.8-4.5 0.4-2.3 0.7-4.5 0.2-2.3 0.3-4.6 0-14-5-22-5-8-16-8zm113 115h-41l35-146h41zm20-163q-2 0-4-0.3-2-0.3-3.9-1-1.9-0.6-3.7-1.6-1.8-0.9-3.4-2.1-7-5-7-16-0.1-1.4 0-2.8 0.1-1.4 0.4-2.8 0.3-1.4 0.7-2.7 0.4-1.4 0.9-2.7 0.5-1.3 1.2-2.5 0.6-1.1 1.4-2.3 0.7-1.1 1.6-2.2 0.8-1 1.8-2 1-0.9 2-1.8 1.1-0.9 2.2-1.6 1.2-0.8 2.4-1.4 1.2-0.7 2.4-1.2 1.3-0.5 2.7-0.9 1.3-0.4 2.7-0.7 1.4-0.2 2.8-0.3 1.4-0.1 2.8-0.1 2.1-0.1 4.3 0.2 2.1 0.3 4.1 0.9 2.1 0.7 4 1.6 1.9 1 3.6 2.3 7 5 7 16-0.1 1.4-0.3 2.9-0.2 1.4-0.6 2.8-0.4 1.4-0.9 2.7-0.5 1.3-1.2 2.6-0.5 1.3-1.2 2.5-0.6 1.1-1.4 2.3-0.7 1.1-1.6 2.2-0.8 1-1.8 2-1 0.9-2 1.8-1.1 0.9-2.2 1.6-1.2 0.8-2.4 1.4-1.2 0.7-2.4 1.2-1.3 0.5-2.7 0.9-1.3 0.4-2.7 0.7-1.4 0.2-2.8 0.3-1.4 0.1-2.8 0.1zm51 24l10-3 13-3 16-3q2.4-0.2 4.7-0.4 2.4-0.2 4.8-0.3 2.4-0.2 4.7-0.2 2.4-0.1 4.8-0.1 33 0 45 19 12 19 4 51l-19 79h-41l19-77 2-14q0.3-1.5 0.4-3 0.1-1.5 0.1-3 0-1.5-0.1-3-0.1-1.5-0.4-3-0.3-1.2-0.7-2.3-0.5-1.1-1.1-2.1-0.6-1.1-1.4-2-0.9-0.9-1.8-1.6-4-3-12-3-2.1-0.1-4.3-0.1-2.1 0-4.2 0.2-2.2 0.1-4.3 0.3-2.1 0.3-4.2 0.6l-26 113h-41z"/>
  <path class="b" d="m1882 243q9 0 16 6 7 6 6 17 0 1.4-0.1 2.8-0.1 1.4-0.3 2.8-0.3 1.4-0.7 2.7-0.4 1.4-0.9 2.7-1.1 2.5-2.6 4.8-1.5 2.2-3.4 4.2-2 1.9-4.2 3.4-2.3 1.5-4.8 2.6-1.2 0.5-2.4 0.9-1.2 0.3-2.5 0.6-1.3 0.2-2.5 0.4-1.3 0.1-2.6 0.1-10 0-16-5-6-5-7-17 0-1.6 0.2-3.1 0.3-1.6 0.6-3.1 0.4-1.5 1-2.9 0.5-1.5 1.2-2.9 1.1-2.5 2.6-4.8 1.5-2.2 3.4-4.2 2-1.9 4.2-3.4 2.3-1.5 4.8-2.6 1.2-0.5 2.4-0.9 1.2-0.3 2.5-0.6 1.3-0.2 2.5-0.4 1.3-0.1 2.6-0.1zm47-10q-0.1-4.6 0.3-9.2 0.3-4.5 1.1-9.1 0.7-4.5 1.9-8.9 1.1-4.5 2.7-8.8 1.5-4 3.4-7.9 1.9-3.8 4.2-7.5 2.2-3.6 4.8-7.1 2.7-3.4 5.6-6.5 2.8-3 6-5.8 3.1-2.7 6.5-5.1 3.4-2.4 7.1-4.4 3.6-2 7.4-3.7 16-7 36-7 2.8-0.1 5.5 0 2.8 0.1 5.6 0.4 2.7 0.2 5.5 0.6 2.7 0.4 5.4 1 2.3 0.5 4.6 1.1 2.3 0.7 4.6 1.4 2.2 0.8 4.4 1.6 2.2 0.9 4.4 1.9l-14 32-11-4q-1.8-0.5-3.7-0.9-1.8-0.4-3.7-0.7-1.9-0.2-3.8-0.3-1.9-0.1-3.8-0.1-21 0-32 14-11 14-12 38 0 14 6 23 6 9 22 9 2 0 4-0.2 2.1-0.1 4.1-0.3 2-0.3 3.9-0.7 2-0.3 4-0.8 1.7-0.3 3.3-0.8 1.7-0.4 3.3-0.9 1.6-0.5 3.2-1.1 1.6-0.6 3.2-1.2l3 33q-2.1 0.8-4.2 1.4-2.1 0.7-4.2 1.4-2.1 0.6-4.3 1.1-2.1 0.6-4.3 1.1-2.8 0.7-5.7 1.3-2.8 0.5-5.7 0.9-2.9 0.4-5.8 0.6-2.9 0.2-5.8 0.2-17 0-29-5-2.7-1.2-5.3-2.7-2.6-1.5-5-3.3-2.4-1.7-4.5-3.7-2.2-2.1-4.2-4.3-1.9-2.1-3.6-4.5-1.6-2.4-3-4.9-1.4-2.5-2.5-5.2-1.1-2.6-1.9-5.4-0.9-2.8-1.6-5.6-0.7-2.9-1.2-5.8-0.5-2.8-0.8-5.8-0.3-2.9-0.4-5.8zm266-60l-17 15-22 21-24 24-23 24h67l-8 34h-117l5-24 19-22 21-23 23-23 20-20h-59l9-34h112z"/>
</svg>
