<svg width="2146.3" height="298.6" xmlns="http://www.w3.org/2000/svg">
  <path d="M300 177c-21 76-103 122-185 103S-16 184 5 108 107-15 189 4s131 97 111 173Z" fill="#f7931a"/>
  <path d="M219 122c3-19-12-29-33-36l6-26-16-3-7 25-13-3 6-26-16-3-7 25-11-2-23-6-4 17 12 3c7 2 8 6 8 9l-8 29a15 15 0 0 1 2 1l-2-1-11 41c-1 2-3 5-8 4l-12-3-8 18 22 5 12 3-7 26 16 4 7-26 13 3-6 26 16 4 7-26c29 5 50 3 59-21 7-20 0-31-15-38 11-2 19-9 21-23Zm-38 50c-5 19-40 9-51 6l9-34c11 3 47 8 42 28Zm5-50c-5 17-34 8-43 6l8-31c10 2 40 6 35 25Z" fill="#fff"/>
  <path d="M450 87q13 0 23 5a46 46 0 0 1 16 13 53 53 0 0 1 9 19 85 85 0 0 1 3 23 94 94 0 0 1-26 65 90 90 0 0 1-29 20 88 88 0 0 1-36 7h-8a127 127 0 0 1-15-1 164 164 0 0 1-17-3 86 86 0 0 1-17-6l48-201 43-7-17 72a66 66 0 0 1 11-4 49 49 0 0 1 12-2Zm-36 119a37 37 0 0 0 18-5 48 48 0 0 0 15-13 63 63 0 0 0 10-18 61 61 0 0 0 3-20q0-13-4-21t-17-7a49 49 0 0 0-10 1 25 25 0 0 0-11 6l-18 75 3 1a20 20 0 0 0 3 0l3 1Zm106-27a97 97 0 0 1 7-34 94 94 0 0 1 17-30 87 87 0 0 1 28-21 81 81 0 0 1 35-7 56 56 0 0 1 18 2 44 44 0 0 1 15 8 36 36 0 0 1 9 13 41 41 0 0 1 4 17q0 16-7 27a52 52 0 0 1-19 17q-13 7-29 10a206 206 0 0 1-37 3q2 12 8 16t21 5a108 108 0 0 0 18-1 89 89 0 0 0 17-5l3 32a122 122 0 0 1-20 6 129 129 0 0 1-26 2q-17 0-29-4a49 49 0 0 1-29-33 81 81 0 0 1-4-23Zm81-60a35 35 0 0 0-25 10q-11 10-14 27l28-3q11-2 16-6 6-3 8-7a17 17 0 0 0 2-8q0-13-15-13Zm168 7-11-3-16-1a60 60 0 0 0-8 1 70 70 0 0 0-8 1l-27 112h-41l33-138 27-7a146 146 0 0 1 33-4 106 106 0 0 1 16 2 58 58 0 0 1 14 4Zm159-36-20 83a92 92 0 0 0-2 32 113 113 0 0 0 6 28l-36 5a133 133 0 0 1-6-13 77 77 0 0 1-17 10 54 54 0 0 1-22 4q-16 0-26-6a38 38 0 0 1-15-16 53 53 0 0 1-6-22 94 94 0 0 1 3-26l19-79h41l-18 78-3 13a39 39 0 0 0 0 11 15 15 0 0 0 4 9q4 4 11 4a29 29 0 0 0 12-3 41 41 0 0 0 11-8l2-14 3-14 18-76Z" fill="#4d4d4d" style="fill:#fff;fill-opacity:1"/>
  <path d="M1032 87q14 0 23 5a45 45 0 0 1 16 13 53 53 0 0 1 10 19 85 85 0 0 1 3 23 94 94 0 0 1-26 65 90 90 0 0 1-29 20 88 88 0 0 1-36 7h-9a127 127 0 0 1-14-1 164 164 0 0 1-17-3 86 86 0 0 1-17-6l48-201 43-7-17 72a66 66 0 0 1 11-4 49 49 0 0 1 11-2Zm-35 119a37 37 0 0 0 18-5 48 48 0 0 0 15-13 63 63 0 0 0 9-18 61 61 0 0 0 4-20q0-13-4-21t-17-7a49 49 0 0 0-10 1 25 25 0 0 0-11 6l-18 75 3 1a21 21 0 0 0 2 0l4 1Zm139 30h-41l34-146h41Zm19-163a25 25 0 0 1-15-5q-7-5-7-16a26 26 0 0 1 2-11 29 29 0 0 1 7-9 30 30 0 0 1 9-6 27 27 0 0 1 11-2 25 25 0 0 1 15 5q7 5 7 16a26 26 0 0 1-2 11 29 29 0 0 1-7 9 30 30 0 0 1-9 6 27 27 0 0 1-11 2Zm57-19 43-6-10 42h45l-8 34h-45l-13 51a68 68 0 0 0-2 12 19 19 0 0 0 2 9 13 13 0 0 0 6 6q4 3 12 3a65 65 0 0 0 13-2 95 95 0 0 0 13-3l3 31a146 146 0 0 1-18 6 104 104 0 0 1-23 2q-19 0-30-6t-15-15a49 49 0 0 1-4-23 144 144 0 0 1 4-26Zm80 124a102 102 0 0 1 6-36 87 87 0 0 1 17-29 81 81 0 0 1 28-19q16-7 36-7a96 96 0 0 1 22 2 89 89 0 0 1 18 6l-14 32-12-4a51 51 0 0 0-14-2q-21 0-33 14t-12 38q0 14 6 23t23 9a71 71 0 0 0 15-2 74 74 0 0 0 13-4l3 33a142 142 0 0 1-17 5 93 93 0 0 1-22 3q-17 0-29-5a55 55 0 0 1-20-14 51 51 0 0 1-11-20 81 81 0 0 1-3-23Zm183 61q-15 0-26-4a47 47 0 0 1-17-12 54 54 0 0 1-11-19 77 77 0 0 1-4-24 107 107 0 0 1 6-34 95 95 0 0 1 16-29 85 85 0 0 1 25-22q15-8 35-8 14 0 25 4a47 47 0 0 1 18 12 54 54 0 0 1 11 19 77 77 0 0 1 3 24 109 109 0 0 1-5 34 95 95 0 0 1-15 29 81 81 0 0 1-26 22q-15 8-35 8Zm20-118a26 26 0 0 0-16 6 45 45 0 0 0-11 13 65 65 0 0 0-7 17 76 76 0 0 0-3 18q0 15 5 22t16 8a26 26 0 0 0 16-6 45 45 0 0 0 11-13 65 65 0 0 0 7-17 76 76 0 0 0 3-18q0-14-5-22t-16-8Zm113 115h-41l35-146h41Zm20-163a25 25 0 0 1-15-5q-7-5-7-16a26 26 0 0 1 2-11 29 29 0 0 1 6-9 30 30 0 0 1 9-6 27 27 0 0 1 11-2 25 25 0 0 1 16 5q7 5 7 16a26 26 0 0 1-3 11 29 29 0 0 1-6 9 30 30 0 0 1-9 6 27 27 0 0 1-11 2Zm51 24 10-3 13-3 16-3a181 181 0 0 1 19-1q33 0 45 19t4 51l-19 79h-41l19-77 2-14a34 34 0 0 0 0-12 14 14 0 0 0-5-8q-4-3-12-3a83 83 0 0 0-17 1l-26 113h-41Z" fill="#ff9300"/>
  <path d="M1827 188q9 0 16 6t6 17a28 28 0 0 1-2 11 28 28 0 0 1-15 15 26 26 0 0 1-10 2q-10 0-16-5t-7-17a28 28 0 0 1 3-12 28 28 0 0 1 15-15 26 26 0 0 1 10-2Zm47-10a102 102 0 0 1 6-36 87 87 0 0 1 18-29 81 81 0 0 1 27-19q16-7 36-7a96 96 0 0 1 22 2 89 89 0 0 1 18 6l-14 32-11-4a50 50 0 0 0-15-2q-21 0-32 14t-12 38q0 14 6 23t22 9a71 71 0 0 0 16-2 74 74 0 0 0 13-4l3 33a143 143 0 0 1-17 5 93 93 0 0 1-23 3q-17 0-29-5a55 55 0 0 1-19-14 51 51 0 0 1-11-20 81 81 0 0 1-4-23Zm266-60-17 15-22 21-24 24-23 24h67l-8 34h-117l5-24 19-22 21-23 23-23 20-20h-59l9-34h112Z" fill="#4d4d4d" style="fill:#fff;fill-opacity:1"/>
</svg>
